<?xml version="1.0" standalone="no"?>
<!-- Generator: Adobe Fireworks 10, Export SVG Extension by Aaron Beall (http://fireworks.abeall.com) . Version: 0.6.1  -->
<!DOCTYPE svg PUBLIC "-//W3C//DTD SVG 1.1//EN" "http://www.w3.org/Graphics/SVG/1.1/DTD/svg11.dtd">
<svg id="logo_s-%u0421%u0442%u0440%u0430%u043D%u0438%u0446%u0430%201" viewBox="0 0 155 26" style="background-color:#ffffff00" version="1.1"
	xmlns="http://www.w3.org/2000/svg" xmlns:xlink="http://www.w3.org/1999/xlink" xml:space="preserve"
	x="0px" y="0px" width="155px" height="26px"
>
	<g id="%u0421%u043B%u043E%u0439%201">
	</g>
	<g id="%u0421%u043B%u043E%u0439%202">
		<path d="M 2.8825 1.3333 C 1.9659 1.6478 1.2784 2.3724 0.8201 3.5208 L 0.8201 20.3236 C 1.2245 23.1126 2.9499 24.6575 5.9693 24.9583 L 34.9772 24.9583 C 36.0017 24.7943 36.5543 24.1653 36.6487 23.0716 L 36.6487 20.4739 C 36.6487 19.3802 36.0151 18.8333 34.7481 18.8333 L 12.9786 18.8333 L 12.9112 18.8333 C 11.6846 18.8333 11.078 18.054 11.078 16.4954 L 11.078 3.8079 C 10.9028 2.5911 10.3906 1.7708 9.5414 1.3333 L 2.8825 1.3333 L 2.8825 1.3333 Z" stroke="#ffffff" stroke-width="1" fill="#ffffff"/>
		<path d="M 49.6834 12.7083 L 41.0565 12.7083 L 41.0565 15.3333 L 49.6834 15.3333 L 49.6834 12.7083 L 49.6834 12.7083 Z" stroke="#ffffff" stroke-width="1" fill="#ffffff"/>
		<path d="M 54.8595 14.0208 C 54.8595 15.1966 55.4257 16.304 56.5849 17.3294 L 53.1341 19.2298 L 55.9918 21.4583 L 57.9598 18.8333 C 58.9573 20.0091 60.0761 20.5833 61.3162 20.5833 C 62.5563 20.5833 63.6751 20.0091 64.6726 18.8333 L 66.6406 21.4583 L 69.5252 19.2298 L 66.0745 17.3294 C 67.2202 16.304 67.7999 15.1966 67.7999 14.0208 C 67.7999 12.8587 67.2202 11.765 66.0745 10.7259 L 69.5252 8.8255 L 66.6406 6.5833 L 64.6726 9.2083 C 63.6751 8.0462 62.5563 7.4583 61.3162 7.4583 C 60.0761 7.4583 58.9573 8.0462 57.9598 9.2083 L 55.9918 6.5833 L 53.1341 8.8255 L 56.5849 10.7259 C 55.4257 11.765 54.8595 12.8587 54.8595 14.0208 L 54.8595 14.0208 ZM 58.5799 11.2454 C 59.3347 10.4798 60.2513 10.0833 61.3297 10.0833 C 62.4081 10.0833 63.3247 10.4798 64.0795 11.2454 C 64.8344 12.0111 65.2118 12.9407 65.2118 14.0071 C 65.2118 15.1009 64.8209 16.0443 64.066 16.8099 C 63.3112 17.5755 62.3946 17.9583 61.3297 17.9583 C 60.2513 17.9583 59.3347 17.5755 58.5799 16.8099 C 57.825 16.0443 57.4476 15.1009 57.4476 14.0071 C 57.4476 12.9407 57.825 12.0111 58.5799 11.2454 L 58.5799 11.2454 Z" stroke="#ffffff" stroke-width="1" fill="#ffffff"/>
		<path d="M 81.6029 12.7083 L 72.976 12.7083 L 72.976 15.3333 L 81.6029 15.3333 L 81.6029 12.7083 L 81.6029 12.7083 Z" stroke="#ffffff" stroke-width="1" fill="#ffffff"/>
		<path d="M 123.5916 20.8841 C 123.5916 22.2239 123.2951 23.2357 122.702 23.9193 C 122.1088 24.6165 121.2192 24.9583 120.0195 24.9583 L 86.8734 24.9583 C 86.1994 24.9036 85.8624 24.7259 85.8624 24.4251 C 85.8624 24.2337 86.0242 23.9739 86.3612 23.6595 L 90.4589 19.8724 C 91.2542 19.1888 92.2382 18.8333 93.3975 18.8333 L 113.9942 18.8333 C 114.8434 18.6829 115.2747 18.1634 115.2747 17.2884 L 115.2747 10.3294 C 115.2747 9.3861 115.2073 8.7435 115.0725 8.4154 C 115.0186 8.306 114.9647 8.2513 114.9108 8.2513 C 114.7086 8.2513 114.3581 8.6068 113.8594 9.304 L 106.85 16.1263 C 106.1626 16.3724 105.556 16.4954 105.0438 16.4954 L 95.3385 16.4954 C 94.6511 16.4954 94.3141 16.3861 94.3141 16.1673 C 94.3141 16.0853 94.395 15.9622 94.5567 15.7982 L 106.0278 5.5169 C 108.9933 2.7279 111.9049 1.3333 114.776 1.3333 L 120.0195 1.3333 C 122.3919 1.3333 123.5916 2.4134 123.5916 4.5462 L 123.5916 20.8841 L 123.5916 20.8841 Z" stroke="#ffffff" stroke-width="1" fill="#ffffff"/>
		<path d="M 154.0688 0.4583 L 150.335 0.4583 L 147.693 6.6243 L 145.0375 0.4583 L 141.1284 0.4583 L 141.1284 11.8333 L 143.7165 11.8333 L 143.7165 1.7708 L 144.0805 1.7708 L 147.0325 9.1947 L 148.2591 9.1947 L 151.1977 1.8802 L 151.4807 1.8802 L 151.4807 11.8333 L 154.0688 11.8333 L 154.0688 0.4583 L 154.0688 0.4583 ZM 138.5404 0.4583 L 129.0508 0.4583 L 129.0508 2.2083 L 132.5016 2.2083 L 132.5016 11.8333 L 135.0896 11.8333 L 135.0896 2.2083 L 138.5404 2.2083 L 138.5404 0.4583 L 138.5404 0.4583 Z" stroke="#ffffff" stroke-width="1" fill="#ffffff"/>
	</g>
</svg>
