<?xml version="1.0" encoding="UTF-8" standalone="no"?>
<!-- Created with Inkscape (http://www.inkscape.org/) -->

<svg
   width="60.6689"
   height="60.663082"
   viewBox="0 0 16.051979 16.05044"
   version="1.1"
   id="svg918"
   xmlns="http://www.w3.org/2000/svg"
   xmlns:svg="http://www.w3.org/2000/svg">
  <defs
     id="defs915" />
  <g
     id="layer1"
     transform="translate(-133.81743,-99.86461)">
    <path
       id="path7343"
       style="opacity:0.98;fill:#ffffff;fill-opacity:1;stroke:none;stroke-width:0.998351"
       d="M 26.160156,0 V 8.7617188 C 17.357462,10.469128 10.474023,17.351795 8.765625,26.154297 H 0 c 0,2.784505 0,5.56901 0,8.353515 h 8.765625 c 1.707685,8.803259 8.591272,15.686846 17.394531,17.394532 v 8.759765 c 2.782552,0 5.565104,0 8.347656,0 v -8.748047 c 8.81195,-1.704353 15.702862,-8.594491 17.408204,-17.40625 h 8.751953 c 0,-2.784505 0,-5.56901 0,-8.353515 H 51.916016 C 50.209961,17.343295 43.319197,10.454077 34.507812,8.75 V 0 C 31.570167,-1.640335e-7 29.28585,-9.5157039e-6 26.160156,0 Z m 4.175782,16.806641 c 7.530499,-5.45e-4 13.63531,6.104266 13.634765,13.634765 -0.0016,7.528974 -6.105791,13.631405 -13.634765,13.63086 -7.529737,0.0016 -13.635108,-6.101123 -13.636719,-13.63086 -5.45e-4,-7.531262 6.105457,-13.63639 13.636719,-13.634765 z"
       transform="matrix(0.26458333,0,0,0.26458333,133.81743,99.86461)" />
  </g>
</svg>
